<svg width="18" height="26" viewBox="0 0 18 26" fill="none" xmlns="http://www.w3.org/2000/svg">
<g clip-path="url(#clip0_477_29234)">
<path fill-rule="evenodd" clip-rule="evenodd" d="M8.99053 22.9425C9.40901 22.9425 9.74795 23.3213 9.74795 23.7889C9.74795 24.2565 9.40901 24.6353 8.99053 24.6353C8.57206 24.6353 8.23312 24.2565 8.23312 23.7889C8.23312 23.3213 8.57206 22.9425 8.99053 22.9425ZM4.09762 14.278C4.08626 14.2526 4.07301 14.2293 4.05786 14.2061C3.99158 14.0854 3.92531 13.9648 3.85904 13.8273C3.79276 13.6792 3.72649 13.5396 3.66779 13.4105C3.60909 13.2708 3.55228 13.1227 3.50305 12.9746C3.46139 12.8455 3.41216 12.6974 3.36293 12.5218C3.28908 12.2721 3.08079 12.1156 2.85735 12.1156H1.42394C1.37471 12.1156 1.32548 12.1071 1.2914 12.0881C1.2592 12.069 1.21755 12.0415 1.19293 12.0055C1.16074 11.9674 1.13423 11.9315 1.11908 11.8955C1.10204 11.8595 1.09447 11.8024 1.09447 11.7474V9.72884C1.09447 9.67383 1.10204 9.62728 1.11151 9.58919C1.12855 9.55111 1.15317 9.50667 1.19482 9.46012C1.22701 9.42415 1.2611 9.39453 1.29329 9.38607C1.32737 9.36703 1.3766 9.35856 1.42584 9.35856H2.74185C3.00694 9.35856 3.22281 9.14486 3.27204 8.86768C3.30423 8.7111 3.33831 8.56299 3.3705 8.4318C3.41216 8.28369 3.45382 8.14404 3.50305 7.99593C3.55228 7.85628 3.60152 7.70817 3.66779 7.57064C3.72649 7.42253 3.79276 7.29346 3.84957 7.16439C3.96508 6.92318 3.92342 6.646 3.75868 6.46191L2.73238 5.30452C2.72481 5.29606 2.72481 5.29606 2.71534 5.29606C2.68315 5.26009 2.65664 5.22201 2.64149 5.18604C2.62445 5.15007 2.62445 5.11198 2.62445 5.05697C2.62445 5.00195 2.63202 4.9554 2.64906 4.91732C2.66611 4.87077 2.69072 4.8348 2.73238 4.78825L3.99916 3.38118C4.04082 3.33464 4.07301 3.30713 4.11466 3.28809C4.14875 3.26904 4.18851 3.26058 4.23964 3.26058C4.28887 3.26058 4.33053 3.26904 4.36461 3.28809C4.3987 3.30713 4.43846 3.33464 4.47254 3.37061H4.48012L5.41553 4.41585C5.59731 4.61898 5.88702 4.64648 6.09531 4.48145C6.20324 4.40739 6.31117 4.33333 6.43425 4.25928C6.5668 4.18522 6.69177 4.11117 6.80728 4.04557C6.93225 3.97998 7.0648 3.9165 7.19735 3.86149C7.31286 3.81494 7.4454 3.75993 7.60257 3.70492C7.82601 3.6224 7.96613 3.38965 7.96613 3.13997V1.53613C7.96613 1.48112 7.9737 1.42611 7.99074 1.38802C8.00779 1.35205 8.0324 1.31396 8.05702 1.27799C8.0911 1.24202 8.12329 1.2124 8.15548 1.20394C8.18767 1.1849 8.2388 1.17643 8.28803 1.17643H9.56049H9.57564H9.70629C9.75552 1.17643 9.80476 1.1849 9.83884 1.20394C9.87103 1.2124 9.90511 1.24202 9.9373 1.27799C9.96192 1.31396 9.98654 1.35205 10.0036 1.38802C10.0206 1.42399 10.0282 1.48112 10.0282 1.53613V3.13786C10.0282 3.38753 10.1683 3.61816 10.3918 3.7028C10.5489 3.75781 10.6815 3.81283 10.797 3.85938C10.9295 3.91439 11.0621 3.97998 11.187 4.04346C11.3025 4.10905 11.4275 4.18311 11.5601 4.25716C11.685 4.33122 11.7911 4.40527 11.899 4.47933C12.1054 4.64648 12.3951 4.61898 12.5788 4.41374L13.5142 3.36849H13.5218C13.554 3.33252 13.5956 3.3029 13.6297 3.28597C13.6619 3.26693 13.7036 3.25846 13.7547 3.25846C13.8039 3.25846 13.8456 3.26693 13.8797 3.28597C13.9213 3.30501 13.9535 3.33252 13.9952 3.37907L15.2619 4.78613C15.3036 4.83268 15.3282 4.86865 15.3453 4.9152C15.3623 4.95117 15.3699 4.99772 15.3699 5.05485C15.3699 5.10986 15.3699 5.14795 15.3528 5.18392C15.3358 5.22201 15.3112 5.25798 15.279 5.29395C15.2714 5.29395 15.2714 5.29395 15.2619 5.30241L14.2356 6.4598C14.0709 6.64388 14.0292 6.92318 14.1448 7.16227C14.2035 7.29134 14.2697 7.42041 14.3265 7.56852C14.3928 7.70817 14.442 7.85628 14.4913 7.99381C14.5405 8.14193 14.5822 8.28158 14.6238 8.42969C14.656 8.55876 14.6901 8.70687 14.7223 8.86556C14.7715 9.14274 14.9874 9.35645 15.2525 9.35645H16.5685C16.6177 9.35645 16.6669 9.36491 16.701 9.38395C16.7332 9.39242 16.7673 9.41992 16.7995 9.45801C16.8412 9.50456 16.8658 9.55111 16.8828 9.58708C16.8904 9.62305 16.8999 9.6696 16.8999 9.72673V11.7453C16.8999 11.8003 16.8923 11.8553 16.8752 11.8934C16.8582 11.9315 16.8336 11.9674 16.8014 12.0034C16.7768 12.0394 16.7351 12.069 16.7029 12.0859C16.6688 12.105 16.6196 12.1134 16.5704 12.1134H15.137C14.9135 12.1134 14.7071 12.27 14.6314 12.5197C14.5822 12.6953 14.5329 12.8434 14.4913 12.9725C14.442 13.1206 14.3833 13.2687 14.3265 13.4084C14.2678 13.5374 14.2016 13.6771 14.1353 13.8252C14.069 13.9648 14.0027 14.0854 13.9365 14.2039C13.9213 14.2272 13.9081 14.2505 13.8967 14.2759H15.1502C15.2032 14.1574 15.2563 14.0304 15.3112 13.8993C15.3774 13.7321 15.4437 13.5671 15.5024 13.3999C15.51 13.3724 15.527 13.3343 15.5365 13.3068H16.5969C16.7881 13.3068 16.9699 13.2708 17.1347 13.1968C17.2994 13.1227 17.4584 13.0021 17.591 12.854C17.7235 12.7059 17.8315 12.5387 17.8977 12.3441C17.964 12.1494 17.9962 11.9548 17.9962 11.7432V9.72673C17.9962 9.5236 17.9546 9.32047 17.8883 9.13428C17.822 8.9502 17.7235 8.78304 17.591 8.63493L17.5834 8.62646C17.4509 8.47835 17.3013 8.35775 17.1365 8.28369C16.9718 8.20117 16.7881 8.16309 16.5988 8.16309H15.6956C15.6956 8.13558 15.688 8.11654 15.6785 8.08903C15.6293 7.91341 15.5801 7.73779 15.5214 7.57064C15.4551 7.39502 15.3964 7.22786 15.3301 7.07129C15.3225 7.05225 15.3055 7.02474 15.2979 6.99723L16.044 6.15511C16.1841 6.01546 16.2845 5.85042 16.3583 5.66423C16.4246 5.48014 16.4662 5.2749 16.4662 5.06331C16.4662 4.84961 16.434 4.65706 16.3583 4.4624C16.2845 4.27832 16.1841 4.11117 16.0515 3.96305H16.044L14.7772 2.55599C14.6446 2.40788 14.4951 2.29785 14.3209 2.21322C14.1466 2.1307 13.9724 2.09261 13.7831 2.09261C13.6013 2.09261 13.4195 2.12858 13.2453 2.21322C13.0711 2.28727 12.9215 2.40788 12.789 2.55599L12.1433 3.26904L12.094 3.24154C11.9615 3.15902 11.8119 3.08496 11.6547 3.00033C11.5052 2.92627 11.3575 2.85221 11.2079 2.78662C11.1833 2.77816 11.1492 2.75911 11.1246 2.74854V1.56364C11.1246 1.34993 11.0924 1.14681 11.0261 0.962728C10.9598 0.77653 10.8519 0.600911 10.7193 0.452799C10.5792 0.304688 10.4296 0.184082 10.263 0.110026C10.0907 0.0359701 9.91647 0 9.72523 0H9.07196H8.92615H8.27288C8.08163 0 7.90932 0.0359701 7.73512 0.110026C7.57038 0.184082 7.42079 0.304688 7.27877 0.452799C7.14622 0.600911 7.03829 0.77653 6.97202 0.962728C6.90574 1.14681 6.87355 1.35205 6.87355 1.56364V2.74854C6.84894 2.757 6.81485 2.77604 6.79024 2.78662C6.64065 2.85221 6.49295 2.92627 6.34336 3.00033C6.1862 3.08285 6.03661 3.1569 5.90406 3.24154L5.85483 3.26904L5.20913 2.55599C5.07658 2.40788 4.92699 2.28727 4.75279 2.21322C4.57858 2.1307 4.3968 2.09261 4.21502 2.09261C4.02377 2.09261 3.85146 2.12858 3.67726 2.21322C3.50305 2.29574 3.35346 2.40788 3.22091 2.55599L1.95413 3.96305H1.94656C1.81401 4.11117 1.71555 4.27832 1.63981 4.4624C1.56596 4.65495 1.53187 4.84961 1.53187 5.0612C1.53187 5.2749 1.57353 5.47803 1.63981 5.66211C1.71365 5.84619 1.81401 6.01335 1.95413 6.153L2.70019 6.99512C2.69262 7.02262 2.67557 7.05013 2.668 7.06917C2.60173 7.22575 2.54303 7.3929 2.47675 7.56852C2.41805 7.73568 2.36882 7.9113 2.31959 8.08691C2.31201 8.11442 2.30255 8.13346 2.30255 8.16097H1.39933C1.20808 8.16097 1.0263 8.19906 0.861561 8.28158C0.696823 8.35563 0.547233 8.47624 0.414686 8.62435L0.407111 8.63281C0.274563 8.78092 0.176099 8.94808 0.109825 9.13216C0.0416579 9.31836 0 9.5236 0 9.72673V11.7432C0 11.9569 0.0321902 12.1494 0.0984641 12.3441C0.164738 12.5387 0.27267 12.7059 0.405218 12.854C0.537766 13.0021 0.69493 13.1227 0.861561 13.1968C1.0263 13.2708 1.20997 13.3068 1.39933 13.3068H2.45971C2.46728 13.3343 2.48433 13.3724 2.49379 13.3999C2.55249 13.5671 2.61877 13.7321 2.68504 13.8993C2.74185 14.0326 2.79297 14.1595 2.84599 14.2759H4.09762V14.278ZM6.14833 12.4054C5.99116 12.4118 5.86998 12.4478 5.78856 12.5112C5.74122 12.5472 5.70713 12.5916 5.6863 12.6445C5.66169 12.7038 5.65033 12.7757 5.65222 12.8582C5.6579 13.0994 5.77151 13.4168 5.99116 13.7829L5.99495 13.7871L6.70692 15.0545C6.99285 15.5623 7.29203 16.0807 7.66505 16.4595C8.02293 16.8255 8.45655 17.0731 9.03219 17.0752C9.65327 17.0773 10.1096 16.8192 10.4789 16.4341C10.8632 16.0321 11.1662 15.4819 11.4635 14.9318L12.2664 13.4549C12.4159 13.0741 12.4709 12.818 12.4368 12.6678C12.4159 12.5789 12.3288 12.5345 12.1774 12.526C12.1452 12.5239 12.113 12.5239 12.0789 12.5239C12.0429 12.526 12.0051 12.5282 11.9672 12.5324C11.9464 12.5345 11.9255 12.5324 11.9047 12.5282C11.8327 12.5324 11.7589 12.526 11.685 12.5155L11.9596 11.1549C9.92026 11.5146 8.39407 9.82194 6.23732 10.8164L6.39259 12.4181C6.30738 12.4202 6.22407 12.4181 6.14833 12.4054ZM12.4519 12.1198C12.6489 12.1875 12.7757 12.3271 12.8287 12.5535C12.8855 12.8053 12.8231 13.1587 12.6337 13.6411C12.6299 13.6496 12.6261 13.658 12.6223 13.6665L11.81 15.1603C11.4976 15.7358 11.1795 16.3135 10.7553 16.7578L10.7345 16.779C10.7742 16.8446 10.8197 16.9165 10.8651 16.9927C11.0053 17.2233 11.1662 17.4878 11.3158 17.693C12.1982 18.3066 14.1391 18.4717 14.8984 18.9435C16.8298 20.1475 16.1254 23.0716 16.2655 25.1748C16.2239 25.672 15.972 25.9577 15.4759 26H14.94L15.5289 21.0129C15.5744 20.6235 15.3282 20.3062 15.0234 20.3062H10.8822C10.9844 19.4915 11.0583 18.7129 11.0943 18.1247C10.9011 17.8856 10.6947 17.547 10.5167 17.255C10.477 17.1916 10.4391 17.1281 10.4031 17.071C10.0301 17.3503 9.587 17.5238 9.03219 17.5216C8.413 17.5195 7.93015 17.2826 7.53061 16.9207C7.41889 17.2952 7.25416 17.8115 7.0951 18.0591C7.08184 18.0802 7.0648 18.0993 7.04587 18.1141C7.11403 18.7214 7.20871 19.5 7.32043 20.3083H3.0789C2.77593 20.3083 2.52788 20.6257 2.57332 21.015L3.16221 26.0021H2.62445C2.12834 25.9598 1.8765 25.6742 1.83484 25.1769C1.85946 22.9489 1.10204 20.2533 3.20198 18.9456C3.97076 18.4653 5.95329 18.3024 6.81864 17.6698C6.95119 17.3926 7.09699 16.8932 7.18599 16.597C7.19546 16.5632 7.18031 16.6182 7.19546 16.5695C6.87734 16.1886 6.61793 15.738 6.36798 15.2936L5.65601 14.0283C5.3947 13.5946 5.26026 13.1968 5.25079 12.8709C5.247 12.7186 5.26972 12.5789 5.32085 12.4562C5.37387 12.3293 5.45529 12.2214 5.56512 12.1388C5.61624 12.1007 5.67494 12.0669 5.73743 12.0394C5.69198 11.3517 5.67305 10.4863 5.70335 9.7627C5.71849 9.59131 5.74879 9.41781 5.79045 9.24642C6.05176 8.2054 6.85273 7.45426 7.76731 7.10091C8.21039 6.92953 8.03998 6.52116 8.48874 6.54867C9.55291 6.61426 11.1927 7.38021 11.8233 8.19271C12.7094 9.32894 12.4803 10.7297 12.4519 12.1198ZM7.58174 19.0832C7.22197 18.6261 7.19167 18.1479 7.58174 17.6423C8.0324 17.7692 8.44519 17.9871 8.8258 18.2812C8.90722 18.241 9.00379 18.2241 9.09657 18.2326C9.49232 17.9194 9.996 17.7925 10.4372 17.5576C10.9636 18.131 10.9068 18.6579 10.3899 19.1466C10.1001 19.0726 9.82558 18.9583 9.56238 18.8081C9.55481 18.8843 9.53777 18.9668 9.50558 19.0557L9.64002 20.3062H8.56638L8.70082 19.0557C8.61751 18.897 8.58531 18.7616 8.58721 18.6494C8.27477 18.8589 7.93583 18.9943 7.58174 19.0832Z" fill="white"/>
</g>
<defs>
<clipPath id="clip0_477_29234">
<rect width="18" height="26" fill="white"/>
</clipPath>
</defs>
</svg>
