<svg xmlns="http://www.w3.org/2000/svg" xmlns:xlink="http://www.w3.org/1999/xlink" version="1.1" width="256" height="256" viewBox="0 0 256 256" xml:space="preserve">

<defs>
</defs>
<g style="stroke: none; stroke-width: 0; stroke-dasharray: none; stroke-linecap: butt; stroke-linejoin: miter; stroke-miterlimit: 10; fill: none; fill-rule: nonzero; opacity: 1;" transform="translate(1.4065934065934016 1.4065934065934016) scale(2.81 2.81)" >
	<path d="M 42.146 30.326 c -0.156 0 -0.313 -0.036 -0.461 -0.113 c -1.82 -0.949 -3.59 -0.949 -5.41 0 c -0.492 0.257 -1.094 0.064 -1.349 -0.424 c -0.255 -0.49 -0.065 -1.094 0.424 -1.349 c 2.409 -1.256 4.851 -1.256 7.26 0 c 0.49 0.255 0.68 0.859 0.424 1.349 C 42.855 30.13 42.507 30.326 42.146 30.326 z" style="stroke: none; stroke-width: 1; stroke-dasharray: none; stroke-linecap: butt; stroke-linejoin: miter; stroke-miterlimit: 10; fill: rgb(0,0,0); fill-rule: nonzero; opacity: 1;" transform=" matrix(1 0 0 1 0 0) " stroke-linecap="round" />
	<path d="M 54.187 30.326 c -0.155 0 -0.313 -0.036 -0.461 -0.113 c -1.82 -0.949 -3.59 -0.949 -5.41 0 c -0.491 0.256 -1.093 0.064 -1.349 -0.424 c -0.255 -0.49 -0.065 -1.094 0.424 -1.349 c 2.41 -1.256 4.85 -1.256 7.26 0 c 0.489 0.255 0.679 0.859 0.424 1.349 C 54.896 30.13 54.548 30.326 54.187 30.326 z" style="stroke: none; stroke-width: 1; stroke-dasharray: none; stroke-linecap: butt; stroke-linejoin: miter; stroke-miterlimit: 10; fill: rgb(0,0,0); fill-rule: nonzero; opacity: 1;" transform=" matrix(1 0 0 1 0 0) " stroke-linecap="round" />
	<path d="M 44.992 44.661 c -1.759 0 -3.515 -0.83 -5.219 -2.491 c -0.396 -0.386 -0.404 -1.019 -0.019 -1.414 c 0.386 -0.396 1.019 -0.404 1.414 -0.019 c 2.605 2.539 5.041 2.537 7.665 -0.002 c 0.397 -0.382 1.029 -0.373 1.414 0.023 c 0.384 0.396 0.374 1.03 -0.023 1.414 C 48.511 43.831 46.749 44.661 44.992 44.661 z" style="stroke: none; stroke-width: 1; stroke-dasharray: none; stroke-linecap: butt; stroke-linejoin: miter; stroke-miterlimit: 10; fill: rgb(0,0,0); fill-rule: nonzero; opacity: 1;" transform=" matrix(1 0 0 1 0 0) " stroke-linecap="round" />
	<path d="M 69.323 58.092 l -8.644 -1.456 c -2.864 -0.482 -4.942 -2.752 -4.942 -5.419 L 55.696 49.4 c 0.148 -0.138 0.308 -0.259 0.452 -0.402 c 0.352 -0.348 0.68 -0.721 1.008 -1.093 c 3.72 -0.654 6.624 -3.695 7.064 -7.484 h 1.88 c 1.705 0 3.093 -1.387 3.093 -3.093 v -8.821 c 0 -1.706 -1.388 -3.093 -3.093 -3.093 h -2.907 l 0.024 -0.352 c 0.008 -0.003 0.016 -0.002 0.024 -0.005 c 0.329 -0.135 0.563 -0.435 0.611 -0.787 c 1.164 -8.313 -0.054 -14.607 -3.618 -18.706 C 57.024 1.872 51.977 0 45.232 0 c -6.755 0 -12.574 2.347 -15.965 6.438 c -3.384 4.084 -4.433 9.686 -3.117 16.648 c 0.055 0.291 0.24 0.525 0.483 0.668 l 0.123 1.66 H 23.9 c -1.706 0 -3.093 1.387 -3.093 3.093 v 8.821 c 0 1.706 1.387 3.093 3.093 3.093 h 4.643 c 1.148 3.44 3.14 6.526 5.764 8.985 l -0.044 1.833 c 0 2.645 -2.079 4.914 -4.942 5.396 l -8.643 1.456 c -5.039 0.849 -8.695 4.917 -8.695 9.674 v 18.582 c 0 2.014 1.74 3.652 3.879 3.652 h 58.278 c 2.139 0 3.879 -1.639 3.879 -3.652 V 67.766 C 78.018 63.009 74.361 58.94 69.323 58.092 z M 59.364 44.909 c 0.465 -0.758 0.901 -1.536 1.269 -2.346 c 0.318 -0.7 0.584 -1.417 0.825 -2.142 h 0.741 C 61.915 42.283 60.861 43.895 59.364 44.909 z M 66.101 27.414 c 0.603 0 1.093 0.49 1.093 1.093 v 8.821 c 0 0.603 -0.49 1.093 -1.093 1.093 h -4.087 c 0.227 -0.994 0.402 -2.002 0.488 -3.03 l 0.553 -7.977 H 66.101 z M 59.19 8.844 c 0.144 -0.268 0.283 -0.539 0.421 -0.814 c 2.242 3.315 3.072 8.034 2.485 14.06 c -0.051 0.014 -0.097 0.033 -0.144 0.055 C 58.543 19.368 55.999 16.173 59.19 8.844 z M 30.807 7.715 C 33.816 4.083 39.074 2 45.232 2 c 5.76 0 10.112 1.444 12.953 4.294 c -0.298 0.584 -0.566 1.148 -0.808 1.694 C 51.924 18.05 41.595 22.984 27.982 21.968 C 26.989 15.968 27.938 11.176 30.807 7.715 z M 23.9 38.421 c -0.603 0 -1.093 -0.49 -1.093 -1.093 v -8.821 c 0 -0.603 0.49 -1.093 1.093 -1.093 h 3.006 l 0.594 7.991 c 0.086 1.024 0.246 2.031 0.472 3.016 H 23.9 z M 29.494 35.247 l -0.836 -11.241 c 11.616 0.676 20.939 -2.813 27.054 -10.024 c -0.341 4.618 2.168 7.443 5.565 10.172 l -0.768 11.084 c -0.189 2.255 -0.759 4.441 -1.694 6.497 c -0.495 1.088 -1.091 2.133 -1.771 3.109 c -0.282 0.405 -0.59 0.793 -0.902 1.176 c -0.159 0.011 -0.317 0.024 -0.479 0.024 h -6.428 c -0.553 0 -1 0.447 -1 1 s 0.447 1 1 1 h 4.982 c -1.927 1.776 -4.14 3.15 -6.619 4.045 c -1.673 0.605 -3.519 0.605 -5.193 0 C 35.199 49.485 30.131 42.871 29.494 35.247 z M 36.262 51.264 l 0.005 -0.211 c 1.647 1.213 3.478 2.203 5.456 2.917 c 1.057 0.382 2.167 0.572 3.276 0.572 c 1.11 0 2.22 -0.19 3.276 -0.572 c 1.975 -0.714 3.791 -1.715 5.456 -2.942 l 0.005 0.211 c 0 2.563 1.394 4.858 3.562 6.214 c -8.251 7.543 -16.321 7.543 -24.597 0 C 34.87 56.099 36.263 53.809 36.262 51.264 z M 21.009 60.064 l 8.643 -1.456 c 0.37 -0.062 0.727 -0.154 1.076 -0.261 c 4.744 4.525 9.515 6.809 14.283 6.809 c 4.768 0 9.532 -2.283 14.262 -6.808 c 0.349 0.106 0.705 0.198 1.075 0.26 l 8.644 1.456 c 4.071 0.686 7.026 3.924 7.026 7.701 v 7.576 h -6.939 c -1.724 0 -3.387 0.675 -4.563 1.853 c -1.081 1.082 -1.675 2.495 -1.673 3.977 c 0.006 3.897 0.004 5.849 0.001 6.829 H 27.09 c -0.003 -0.98 -0.005 -2.932 0 -6.829 c 0.002 -1.482 -0.593 -2.895 -1.674 -3.978 c -1.175 -1.177 -2.838 -1.852 -4.562 -1.852 h -6.873 v -7.576 C 13.982 63.988 16.938 60.75 21.009 60.064 z M 13.982 86.348 v -9.006 h 6.873 c 1.197 0 2.344 0.461 3.146 1.265 c 0.703 0.704 1.09 1.614 1.089 2.563 c -0.005 3.34 -0.005 5.607 0 6.831 h -9.229 C 14.825 88 13.982 87.259 13.982 86.348 z M 74.139 88 h -9.296 c 0.005 -1.224 0.005 -3.492 0 -6.831 c -0.001 -0.948 0.385 -1.857 1.089 -2.562 c 0.803 -0.805 1.949 -1.266 3.146 -1.266 h 6.939 v 9.006 C 76.018 87.259 75.175 88 74.139 88 z" style="stroke: none; stroke-width: 1; stroke-dasharray: none; stroke-linecap: butt; stroke-linejoin: miter; stroke-miterlimit: 10; fill: rgb(0,0,0); fill-rule: nonzero; opacity: 1;" transform=" matrix(1 0 0 1 0 0) " stroke-linecap="round" />
</g>
</svg>