<svg width="26" height="26" viewBox="0 0 26 26" fill="none" xmlns="http://www.w3.org/2000/svg">
<g id="Layer_1" clip-path="url(#clip0_477_29270)">
<path id="Vector" d="M0.00135678 13.8656C0.0454522 13.6873 0.086834 13.5082 0.135 13.3312C0.411105 12.3273 0.984345 11.5378 1.8554 10.9694C1.98022 10.8881 2.03653 10.8067 2.03924 10.6493C2.12336 6.2833 4.96107 2.28424 9.07551 0.722873C14.7516 -1.4313 21.0762 1.39029 23.2498 7.045C23.5578 7.84671 23.0619 8.59145 22.2485 8.52905C21.8109 8.49581 21.5233 8.24282 21.3673 7.83382C20.9935 6.85373 20.4745 5.95841 19.7825 5.16823C18.2921 3.46714 16.432 2.43482 14.1858 2.12892C9.89704 1.54358 5.78532 4.14269 4.49298 8.27063C4.29014 8.91769 4.19042 9.59799 4.03235 10.3136C4.19652 10.3136 4.27793 10.3136 4.35934 10.3136C4.94343 10.3136 5.52753 10.3095 6.11094 10.3149C6.67129 10.3197 7.10682 10.7538 7.1075 11.316C7.11021 14.5059 7.11021 17.6958 7.1075 20.885C7.1075 21.446 6.66994 21.8821 6.11026 21.8862C5.39931 21.8916 4.68836 21.8902 3.9774 21.8862C2.06027 21.876 0.345301 20.394 0.0515577 18.4982C0.0427386 18.4419 0.0176382 18.389 0 18.3341C0 16.8446 0 15.3558 0 13.8663L0.00135678 13.8656ZM5.0764 12.3416C4.7528 12.3416 4.45092 12.3395 4.14836 12.3416C2.91708 12.3497 2.03856 13.2227 2.03314 14.4503C2.02839 15.5498 2.02432 16.6486 2.03789 17.748C2.04128 18.0051 2.07723 18.2771 2.17017 18.5145C2.68711 19.8364 3.82951 19.9694 5.0764 19.8147V12.3416Z" fill="#2E82D0"/>
<path id="Vector_2" d="M12.6437 26.0004C12.5501 25.9664 12.4571 25.9312 12.3628 25.9C11.5169 25.6185 10.9667 24.8514 10.9688 23.9567C10.9708 23.0723 11.5372 22.3031 12.3873 22.0318C13.2183 21.7659 14.1287 22.0583 14.6368 22.7745C14.7399 22.9197 14.8458 22.9597 15.0113 22.9583C15.9251 22.9515 16.8389 22.9563 17.7527 22.9549C18.469 22.9536 18.8896 22.5358 18.8896 21.8216C18.891 18.3617 18.8896 14.9012 18.8896 11.4414C18.8896 10.7129 19.2885 10.3141 20.0158 10.3141C20.6589 10.3141 21.302 10.3127 21.9451 10.3141C24.1852 10.3181 25.9924 12.121 25.9971 14.3586C25.9992 15.5259 25.9999 16.6939 25.9971 17.8612C25.9917 20.0676 24.1811 21.8799 21.9777 21.888C21.6331 21.8894 21.2884 21.888 20.9282 21.888C20.9235 22.607 20.7227 23.2425 20.2912 23.7906C19.6861 24.559 18.8924 24.9735 17.9073 24.983C16.9427 24.9925 15.978 24.9877 15.0133 24.983C14.8498 24.9823 14.7372 25.0128 14.6375 25.1647C14.3349 25.6273 13.8628 25.8464 13.354 26.0024H12.643L12.6437 26.0004ZM20.933 19.8519C21.3156 19.8519 21.6873 19.8743 22.055 19.8478C23.1275 19.7705 23.9396 18.9437 23.9606 17.8747C23.9844 16.6918 23.9816 15.5069 23.9606 14.324C23.9443 13.3995 23.3134 12.6012 22.4261 12.4201C21.9458 12.3224 21.4411 12.3462 20.9323 12.3136V19.8519H20.933Z" fill="#2E82D0"/>
</g>
<defs>
<clipPath id="clip0_477_29270">
<rect width="26" height="26" fill="white"/>
</clipPath>
</defs>
</svg>
